<svg xmlns="http://www.w3.org/2000/svg" width="48" height="46" fill="none" viewBox="0 0 48 46">
  <!-- Dark background -->
  <rect width="48" height="46" fill="#1a1a1a" rx="4"/>
  <!-- Icon content -->
  <path fill="#863bff" d="M25.946 44.938c-.664.845-2.021.375-2.021-.698V33.937a2.26 2.26 0 0 0-2.262-2.2H11.044c-1.076 0-1.539-1.348-.69-2.01L26.69 13.126c.657-.538 1.792-.538 2.448 0l16.336 16.601c.849.662.386 2.01-.69 2.01h-10.62a2.26 2.26 0 0 0-2.262 2.2v10.303c0 1.073-1.357 1.543-2.021.698l-6.935-8.79z"/>
</svg>